<svg width="1600" height="900" viewBox="0 0 1600 900" xmlns="http://www.w3.org/2000/svg" role="img">
<title>Neighborhood</title>
<desc>Stylized row houses, tree and bench — Ottawa Civic Ledger</desc>
  <defs>
    
    <pattern id="dots-neigh" width="14" height="14" patternUnits="userSpaceOnUse">
      <circle cx="7" cy="7" r="2.1" fill="#3A7D44" opacity="0.55"/>
    </pattern>
  </defs>
  <rect x="0" y="0" width="1600" height="900" fill="#F5F0E6"/>
  <rect x="0" y="0" width="1600" height="900" fill="url(#dots-neigh)"/>
  <polygon points="80.0,98.2 182.9,99.0 285.7,89.6 388.6,83.3 491.4,76.0 594.3,94.6 697.1,89.2 800.0,97.3 902.9,86.4 1005.7,97.6 1108.6,83.6 1211.4,98.5 1314.3,96.4 1417.1,87.6 1520.0,91.1 1520.0,715.1 1417.1,701.4 1314.3,711.5 1211.4,718.5 1108.6,703.4 1005.7,718.5 902.9,715.2 800.0,719.6 697.1,705.4 594.3,698.6 491.4,718.4 388.6,718.5 285.7,708.5 182.9,698.6 80.0,701.5" fill="#E5DDC8" opacity="0.9" transform="rotate(-1.2 800.0 450.0)"/>
  <polygon points="180.0,155.2 268.6,163.7 357.1,163.7 445.7,167.0 534.3,153.7 622.9,154.6 711.4,152.9 800.0,154.5 888.6,164.7 977.1,152.6 1065.7,160.6 1154.3,154.3 1242.9,155.9 1331.4,158.6 1420.0,166.8 1420.0,642.2 1331.4,630.3 1242.9,635.5 1154.3,632.9 1065.7,647.4 977.1,646.2 888.6,646.1 800.0,646.5 711.4,644.9 622.9,649.0 534.3,645.9 445.7,635.1 357.1,647.0 268.6,639.7 180.0,645.1" fill="#3A7D44" opacity="0.10"/>
  <rect x="64" y="64" width="4" height="772" fill="#1A1A1A" opacity="0.15"/>
  <text x="100" y="838" font-family="Georgia, serif" font-size="22" font-style="italic" fill="#1A1A1A" opacity="0.55">Ottawa Civic Ledger — representative illustration</text>
  <rect x="100" y="86" width="18" height="18" fill="#3A7D44"/>
  <text x="128" y="101" font-family="Arial, sans-serif" font-size="16" letter-spacing="3" fill="#1A1A1A" opacity="0.7">NEIGHBORHOOD</text>

        <g transform="translate(300,430)">
          <rect x="0" y="90" width="150" height="180" fill="#3A7D44"/>
          <polygon points="-15,90 75,10 165,90" fill="#1A1A1A" opacity="0.8"/>
          <rect x="60" y="190" width="40" height="80" fill="#F5F0E6"/>
          <rect x="18" y="130" width="34" height="34" fill="#F5F0E6"/>
          <rect x="98" y="130" width="34" height="34" fill="#F5F0E6"/>
        </g>
        <g transform="translate(470,430)">
          <rect x="0" y="90" width="150" height="180" fill="#B87333"/>
          <polygon points="-15,90 75,10 165,90" fill="#1A1A1A" opacity="0.8"/>
          <rect x="60" y="190" width="40" height="80" fill="#F5F0E6"/>
          <rect x="18" y="130" width="34" height="34" fill="#F5F0E6"/>
          <rect x="98" y="130" width="34" height="34" fill="#F5F0E6"/>
        </g>
        <g transform="translate(640,430)">
          <rect x="0" y="90" width="150" height="180" fill="#3A7D44"/>
          <polygon points="-15,90 75,10 165,90" fill="#1A1A1A" opacity="0.8"/>
          <rect x="60" y="190" width="40" height="80" fill="#F5F0E6"/>
          <rect x="18" y="130" width="34" height="34" fill="#F5F0E6"/>
          <rect x="98" y="130" width="34" height="34" fill="#F5F0E6"/>
        </g>
        <g transform="translate(810,430)">
          <rect x="0" y="90" width="150" height="180" fill="#B87333"/>
          <polygon points="-15,90 75,10 165,90" fill="#1A1A1A" opacity="0.8"/>
          <rect x="60" y="190" width="40" height="80" fill="#F5F0E6"/>
          <rect x="18" y="130" width="34" height="34" fill="#F5F0E6"/>
          <rect x="98" y="130" width="34" height="34" fill="#F5F0E6"/>
        </g>
    <g transform="translate(1180,470)">
      <rect x="-14" y="120" width="28" height="130" fill="#1A1A1A" opacity="0.5"/>
      <circle cx="0" cy="40" r="100" fill="#3A7D44"/>
      <circle cx="-60" cy="90" r="60" fill="#3A7D44"/>
      <circle cx="70" cy="90" r="65" fill="#3A7D44"/>
    </g>
    <g transform="translate(1000,720)">
      <rect x="0" y="0" width="180" height="16" fill="#1A1A1A" opacity="0.6"/>
      <rect x="0" y="-46" width="180" height="14" fill="#1A1A1A" opacity="0.6"/>
      <rect x="10" y="16" width="14" height="40" fill="#1A1A1A" opacity="0.6"/>
      <rect x="156" y="16" width="14" height="40" fill="#1A1A1A" opacity="0.6"/>
    </g>
</svg>