<svg width="1600" height="900" viewBox="0 0 1600 900" xmlns="http://www.w3.org/2000/svg" role="img">
<title>Transit</title>
<desc>Stylized light-rail train and transit map — Ottawa Civic Ledger</desc>
  <defs>
    
    <pattern id="dots-transit" width="14" height="14" patternUnits="userSpaceOnUse">
      <circle cx="7" cy="7" r="2.1" fill="#1E5F8E" opacity="0.55"/>
    </pattern>
  </defs>
  <rect x="0" y="0" width="1600" height="900" fill="#F5F0E6"/>
  <rect x="0" y="0" width="1600" height="900" fill="url(#dots-transit)"/>
  <polygon points="80.0,79.8 182.9,99.7 285.7,97.4 388.6,83.1 491.4,89.9 594.3,88.6 697.1,94.2 800.0,98.1 902.9,78.6 1005.7,76.8 1108.6,99.4 1211.4,88.1 1314.3,97.3 1417.1,76.1 1520.0,88.5 1520.0,716.2 1417.1,702.4 1314.3,722.5 1211.4,721.2 1108.6,696.9 1005.7,696.7 902.9,711.2 800.0,722.3 697.1,706.7 594.3,702.1 491.4,707.8 388.6,696.8 285.7,702.2 182.9,708.3 80.0,709.9" fill="#E5DDC8" opacity="0.9" transform="rotate(-1.2 800.0 450.0)"/>
  <polygon points="180.0,154.5 268.6,169.2 357.1,152.5 445.7,164.1 534.3,151.7 622.9,154.9 711.4,170.0 800.0,154.2 888.6,162.8 977.1,159.2 1065.7,159.1 1154.3,159.9 1242.9,153.8 1331.4,166.6 1420.0,151.8 1420.0,634.7 1331.4,630.4 1242.9,635.3 1154.3,638.2 1065.7,648.0 977.1,637.6 888.6,632.3 800.0,635.2 711.4,649.8 622.9,631.3 534.3,642.4 445.7,637.5 357.1,643.2 268.6,636.8 180.0,643.8" fill="#1E5F8E" opacity="0.10"/>
  <rect x="64" y="64" width="4" height="772" fill="#1A1A1A" opacity="0.15"/>
  <text x="100" y="838" font-family="Georgia, serif" font-size="22" font-style="italic" fill="#1A1A1A" opacity="0.55">Ottawa Civic Ledger — representative illustration</text>
  <rect x="100" y="86" width="18" height="18" fill="#1E5F8E"/>
  <text x="128" y="101" font-family="Arial, sans-serif" font-size="16" letter-spacing="3" fill="#1A1A1A" opacity="0.7">TRANSIT</text>
<path d="M 200 700 Q 500 650 800 700 T 1400 700" stroke="#1A1A1A" stroke-width="6" fill="none" opacity="0.25" stroke-dasharray="2 22" stroke-linecap="round"/>
    <g transform="translate(430,320)">
      <rect x="0" y="0" width="620" height="220" rx="36" fill="#1E5F8E"/>
      <rect x="0" y="0" width="620" height="70" rx="36" fill="#1A1A1A" opacity="0.12"/>
      <circle cx="120" cy="140" r="34" fill="#F5F0E6"/>
      <circle cx="240" cy="140" r="34" fill="#F5F0E6"/>
      <circle cx="360" cy="140" r="34" fill="#F5F0E6"/>
      <circle cx="480" cy="140" r="34" fill="#F5F0E6"/>
      <rect x="-30" y="60" width="30" height="120" rx="10" fill="#1E5F8E"/>
      <rect x="620" y="40" width="46" height="150" rx="14" fill="#1E5F8E"/>
      <circle cx="90" cy="240" r="42" fill="#1A1A1A"/>
      <circle cx="90" cy="240" r="18" fill="#E5DDC8"/>
      <circle cx="520" cy="240" r="42" fill="#1A1A1A"/>
      <circle cx="520" cy="240" r="18" fill="#E5DDC8"/>
    </g>
    <g transform="translate(1180,560)">
      <circle cx="0" cy="0" r="70" fill="none" stroke="#B87333" stroke-width="14"/>
      <line x1="48" y1="48" x2="120" y2="120" stroke="#B87333" stroke-width="16" stroke-linecap="round"/>
    </g>
    <g transform="translate(260,560)">
      <circle cx="0" cy="0" r="56" fill="#F5F0E6" stroke="#1A1A1A" stroke-width="4" opacity="0.9"/>
      <line x1="0" y1="0" x2="0" y2="-32" stroke="#1A1A1A" stroke-width="5" stroke-linecap="round"/>
      <line x1="0" y1="0" x2="22" y2="10" stroke="#1A1A1A" stroke-width="5" stroke-linecap="round"/>
    </g>
</svg>